# xmcd
#
# Track frame offsets: 
#        150
#        12870
#        25477
#        39467
#        54542
#        66195
#        79555
#        91802
#        107240
#        121262
#        135252
#        150655
#        163172
#        176012
#        189310
#        201907
#        216307
#        229910
#        244217
#        258005
#        271005
#        284130
#        298745
#
# Disc length: 4146 seconds
#
# Revision: 2
# Processed by: cddbd v1.5.2PL0 Copyright (c) Steve Scherf et al.
# Submitted via: ExactAudioCopy v1.0b1
#
DISCID=49103017
DTITLE=Tampa Red - The Bluebird Recordings 1936-1938 [CD1]
DYEAR=1997
DGENRE=Blues
TTITLE0=Stormy Sea Blues (mono)
TTITLE1=Nutty And Buggy Blues (mono)
TTITLE2=You Stole My Heart (mono)
TTITLE3=You Got Me Worrying (mono)
TTITLE4=All Night Long (mono)
TTITLE5=That's The Way I Do (mono)
TTITLE6=I Hate Myself (mono)
TTITLE7=I Need You By My Side (mono)
TTITLE8=Blue And Evil Blues (mono)
TTITLE9=If It Wasn't For You (mono)
TTITLE10=Right Or Wrong (mono)
TTITLE11=Stop Truckin' And Susie-Q (mono)
TTITLE12=Cheatin' On Me (mono)
TTITLE13=Your One And Only (mono)
TTITLE14=My Za Zu Girl (mono)
TTITLE15=Someday I'm Bound To Win (mono)
TTITLE16=Taking It And Making My Getaway (mono)
TTITLE17=She Said It (mono)
TTITLE18=It's Hard To Believe It's True (mono)
TTITLE19=When Love Comes In (mono)
TTITLE20=You Got To Learn To Do It (mono)
TTITLE21=I Give My Love To You (mono)
TTITLE22=I See You Can't Take It (mono)
EXTD=
EXTT0=
EXTT1=
EXTT2=
EXTT3=
EXTT4=
EXTT5=
EXTT6=
EXTT7=
EXTT8=
EXTT9=
EXTT10=
EXTT11=
EXTT12=
EXTT13=
EXTT14=
EXTT15=
EXTT16=
EXTT17=
EXTT18=
EXTT19=
EXTT20=
EXTT21=
EXTT22=
PLAYORDER=
